<svg class="injected-svg" id="svg-a5a659a7-496a-4667-9b41-c917745ee127" height="100%" width="100%" viewBox="0 0 540 508" xmlns="http://www.w3.org/2000/svg"><g xmlns="http://www.w3.org/2000/svg" fill="#5984d6" id="shape-svg"><title>forma_1</title><g id="Слой_2" data-name="Слой 2"><g id="Слой_1-2" data-name="Слой 1"><path transform="translate(98.35, 197.7) scale(1.1,1.1)" d="M307.47,6.32,304,6.5c-2.24.09-5.55.29-9.75.43l-15.17.55c-5.85.22-12.46.46-19.67.59l-23.26.51c-8.26.19-17,.42-26,.43l-56.46.41L97.29,9c-9,0-17.72-.26-26-.44L48,8.06c-7.2-.12-13.8-.37-19.66-.59L13.21,6.93C9,6.79,5.71,6.58,3.45,6.5L0,6.32V6l153.73-.18L307.47,6Z"></path><path transform="translate(98.35, 197.7) scale(1.1,1.1)" d="M257,.27l-8.88.31c-5.65.12-13.71.43-23.4.56s-21,.43-33.09.48l-37.94.2L115.8,1.61c-12.11-.06-23.4-.34-33.09-.47S65,.7,59.3.57L50.42.27V.09L153.73,0,257,.09Z"></path><path transform="translate(98.35, 197.7) scale(1.1,1.1)" d="M0,88.57l3.46-.18C5.7,88.3,9,88.09,13.21,88l15.17-.55c5.85-.22,12.46-.47,19.67-.59l23.26-.52c8.26-.18,17-.41,26-.43l56.45-.4,56.45.41c9,0,17.72.26,26,.44l23.28.51c7.2.12,13.8.37,19.66.59l15.17.54c4.2.13,7.5.35,9.76.43l3.45.18v.36l-153.74.18L0,88.93Z"></path><path transform="translate(98.35, 197.7) scale(1.1,1.1)" d="M50.43,94.62l8.88-.31c5.64-.12,13.71-.43,23.4-.57s21-.42,33.09-.47l37.93-.2,37.94.21c12.11,0,23.4.34,33.09.47s17.76.44,23.41.57l8.88.3v.18l-103.32.09L50.43,94.8Z"></path></g></g></g><path xmlns="http://www.w3.org/2000/svg" id="SvgjsPath37122093" d="M1.30 0L2.74 0L2.74-5.90L5.65-2.14L5.71-2.14L8.51-5.90L8.51 0L9.95 0L9.95-8.10L8.68-8.10L5.72-4.09L2.61-8.10L1.30-8.10ZM18.95-2.02C18.43-1.53 17.51-1.17 16.47-1.17C14.89-1.17 13.77-2.07 13.64-3.60L19.87-3.60C19.93-3.85 19.96-4.18 19.96-4.57C19.96-6.80 18.29-8.28 16.20-8.28C13.54-8.28 12.02-6.41 12.02-4.05C12.02-1.49 13.73 0.18 16.36 0.18C17.44 0.18 18.61-0.16 19.40-0.88ZM16.13-6.93C17.53-6.93 18.40-6.10 18.47-4.77L13.55-4.77C13.72-6.01 14.65-6.93 16.13-6.93ZM28.19-12.78C27.36-11.70 26.24-12.20 24.35-11.39C21.78-10.31 21.35-7.25 21.35-4.86C21.35-1.75 23.00 0.18 25.63 0.18C28.10 0.18 29.79-1.71 29.79-3.98C29.79-6.41 28.35-8.01 26.03-8.01C24.66-8.01 23.35-7.25 22.82-6.12L22.79-6.12C22.90-7.63 23.33-9.34 24.84-10.03C26.62-10.84 27.97-10.31 28.96-11.65ZM22.88-4.59C23.13-5.63 24.14-6.66 25.67-6.66C27.34-6.66 28.26-5.49 28.26-3.91C28.26-2.39 27.18-1.17 25.60-1.17C23.99-1.17 22.88-2.50 22.88-4.59ZM38.25-2.02C37.73-1.53 36.81-1.17 35.77-1.17C34.18-1.17 33.07-2.07 32.94-3.60L39.17-3.60C39.22-3.85 39.26-4.18 39.26-4.57C39.26-6.80 37.58-8.28 35.50-8.28C32.83-8.28 31.32-6.41 31.32-4.05C31.32-1.49 33.03 0.18 35.66 0.18C36.74 0.18 37.91-0.16 38.70-0.88ZM35.42-6.93C36.83-6.93 37.69-6.10 37.76-4.77L32.85-4.77C33.01-6.01 33.95-6.93 35.42-6.93ZM46.44 0L47.88 0L47.88-8.10L42.25-8.10L42.10-5.58C41.90-1.84 40.75-1.24 40.14-1.30L40.25 0.11C41.92 0.11 43.15-0.68 43.51-5.29L43.60-6.66L46.44-6.66ZM50.47 0L53.21 0C55.76 0 56.59-1.46 56.59-2.88C56.59-4.32 55.87-5.67 53.39-5.67L51.91-5.67L51.91-8.10L50.47-8.10ZM53.12-4.32C54.50-4.32 55.06-3.80 55.06-2.83C55.06-1.87 54.52-1.35 53.10-1.35L51.91-1.35L51.91-4.32ZM68.80-2.21C68.26-1.60 67.45-1.17 66.47-1.17C64.87-1.17 63.56-2.27 63.56-4.05C63.56-5.76 64.87-6.93 66.33-6.93C67.18-6.93 67.97-6.71 68.65-6.08L69.32-7.22C68.56-7.97 67.43-8.28 66.13-8.28C63.76-8.28 62.03-6.41 62.03-4.05C62.03-1.49 63.79 0.18 66.37 0.18C67.61 0.18 68.80-0.29 69.48-1.17ZM70.38-4.05C70.38-1.62 72.11 0.18 74.70 0.18C77.29 0.18 79.02-1.62 79.02-4.05C79.02-6.48 77.29-8.28 74.70-8.28C72.11-8.28 70.38-6.48 70.38-4.05ZM71.91-4.05C71.91-5.76 73.12-6.93 74.70-6.93C76.32-6.93 77.49-5.74 77.49-4.05C77.49-2.32 76.32-1.17 74.70-1.17C73.08-1.17 71.91-2.36 71.91-4.05ZM85.14 0C85.88 0 87.10 0.07 88.11 0.07C90.63 0.07 91.84-0.76 91.84-2.29C91.84-3.29 91.24-3.96 89.95-4.19L89.95-4.23C90.92-4.37 91.57-5.13 91.57-6.08C91.57-7.54 90.34-8.17 88.07-8.17C86.90-8.17 85.84-8.10 85.14-8.10ZM88.31-3.64C89.60-3.64 90.31-3.24 90.31-2.39C90.31-1.55 89.57-1.10 88.24-1.10C87.59-1.10 87.01-1.13 86.58-1.15L86.58-3.64ZM88.18-7.00C89.23-7.00 90.04-6.68 90.04-5.80C90.04-5.00 89.35-4.54 88.40-4.54L86.58-4.54L86.58-6.95C86.94-6.97 87.53-7.00 88.18-7.00ZM101.12-8.10L99.23-8.10L95.81-4.14L99.47 0L101.47 0L97.58-4.23ZM94.03 0L95.47 0L95.47-8.10L94.03-8.10ZM110.20-8.10L108.56-8.10L106.69-2.97C106.54-2.54 106.42-2.12 106.31-1.73C106.15-2.14 106.00-2.54 105.82-2.95L103.45-8.10L101.72-8.10L105.61 0L105.43 0.43C104.89 1.73 104.38 2.27 103.70 2.27C103.37 2.27 103.07 2.12 102.80 2.00L102.33 3.10C102.76 3.38 103.25 3.60 103.86 3.60C105.01 3.60 105.77 2.90 106.96 0ZM117.58-2.21C117.04-1.60 116.23-1.17 115.25-1.17C113.65-1.17 112.34-2.27 112.34-4.05C112.34-5.76 113.65-6.93 115.11-6.93C115.96-6.93 116.75-6.71 117.43-6.08L118.10-7.22C117.34-7.97 116.21-8.28 114.91-8.28C112.54-8.28 110.81-6.41 110.81-4.05C110.81-1.49 112.57 0.18 115.15 0.18C116.39 0.18 117.58-0.29 118.26-1.17ZM119.16-4.05C119.16-1.62 120.89 0.18 123.48 0.18C126.07 0.18 127.80-1.62 127.80-4.05C127.80-6.48 126.07-8.28 123.48-8.28C120.89-8.28 119.16-6.48 119.16-4.05ZM120.69-4.05C120.69-5.76 121.90-6.93 123.48-6.93C125.10-6.93 126.27-5.74 126.27-4.05C126.27-2.32 125.10-1.17 123.48-1.17C121.86-1.17 120.69-2.36 120.69-4.05ZM129.87 0L131.31 0L131.31-5.90L134.23-2.14L134.28-2.14L137.09-5.90L137.09 0L138.53 0L138.53-8.10L137.25-8.10L134.30-4.09L131.18-8.10L129.87-8.10Z" fill="#000000" fontsize="18" transform="matrix(1,0,0,1,199.585,328.09)"></path><path xmlns="http://www.w3.org/2000/svg" id="SvgjsPath37122088" d="M48.60-3.78L49.05-3.15L48.51 0.18L40.68 0.99Q36.45 0.99 32.49-5.49L32.49-5.49L23.94-20.16L18.72-20.16L18.36-9Q18.27-6.21 18.95-5.22Q19.62-4.23 21.42-4.23L21.42-4.23Q22.41-4.23 23.36-4.32Q24.30-4.41 24.39-4.41L24.39-4.41L24.75-3.96L24.03 0.18Q21.96 0.18 20.34 0.09L20.34 0.09L13.86 0Q7.92 0 4.14 0.18L4.14 0.18L4.86-4.05Q8.10-4.50 9.13-5.54Q10.17-6.57 10.17-9.45L10.17-9.45L10.17-36.99Q10.26-39.24 9.67-40.00Q9.09-40.77 7.47-40.77L7.47-40.77L5.22-40.68L4.86-41.13L5.49-45.09L14.76-44.91Q16.65-44.91 20.97-45.27L20.97-45.27L24.30-45.45L23.94-41.13Q21.15-40.59 20.20-39.78Q19.26-38.97 19.17-37.08L19.17-37.08L18.81-25.83L24.75-25.56L30.96-35.73Q34.47-41.31 37.57-43.42Q40.68-45.54 45.90-45.54L45.90-45.54Q48.42-42.57 48.24-37.08L48.24-37.08L47.34-36.18Q45.09-36.81 43.20-36.81L43.20-36.81Q40.68-36.81 38.92-35.50Q37.17-34.20 35.37-31.41L35.37-31.41L30.96-24.48L40.05-9.72Q43.74-3.78 48.60-3.78L48.60-3.78ZM74.97 0.54L74.70 0.09L74.97-3.78Q78.75-4.14 79.88-4.59Q81-5.04 81-6.39L81-6.39Q81-7.56 80.46-9L80.46-9L78.75-14.85Q76.86-14.94 71.64-14.94L71.64-14.94Q68.85-14.94 64.35-14.49L64.35-14.49L62.19-8.73Q61.74-6.93 61.74-6.48L61.74-6.48Q61.74-5.13 62.59-4.59Q63.45-4.05 65.52-4.05L65.52-4.05L68.85-4.05L69.21-3.60L68.67 0.45Q67.68 0.36 64.35 0.18Q61.02 0 58.05 0L58.05 0Q55.08 0 52.65 0.09Q50.22 0.18 49.41 0.18L49.41 0.18L49.95-4.14Q51.75-4.41 52.87-5.44Q54.00-6.48 54.99-9L54.99-9L68.58-44.55L78.12-45.72L78.93-45.45Q80.01-41.49 83.52-29.20Q87.03-16.92 89.82-9L89.82-9Q90.63-6.39 91.93-5.35Q93.24-4.32 96.03-4.05L96.03-4.05L96.30-3.60L95.76 0.18Q94.86 0.18 92.29 0.09Q89.73 0 87.03 0L87.03 0Q83.25 0 79.60 0.22Q75.96 0.45 74.97 0.54L74.97 0.54ZM65.97-19.89L71.55-19.89Q75.06-19.89 77.49-20.16L77.49-20.16L72.72-36.36L71.82-36.36L65.97-19.89ZM145.26-3.78L145.71-3.15L145.17 0.18L137.34 0.99Q133.11 0.99 129.15-5.49L129.15-5.49L120.60-20.16L115.38-20.16L115.02-9Q114.93-6.21 115.60-5.22Q116.28-4.23 118.08-4.23L118.08-4.23Q119.07-4.23 120.02-4.32Q120.96-4.41 121.05-4.41L121.05-4.41L121.41-3.96L120.69 0.18Q118.62 0.18 117 0.09L117 0.09L110.52 0Q104.58 0 100.80 0.18L100.80 0.18L101.52-4.05Q104.76-4.50 105.80-5.54Q106.83-6.57 106.83-9.45L106.83-9.45L106.83-36.99Q106.92-39.24 106.33-40.00Q105.75-40.77 104.13-40.77L104.13-40.77L101.88-40.68L101.52-41.13L102.15-45.09L111.42-44.91Q113.31-44.91 117.63-45.27L117.63-45.27L120.96-45.45L120.60-41.13Q117.81-40.59 116.86-39.78Q115.92-38.97 115.83-37.08L115.83-37.08L115.47-25.83L121.41-25.56L127.62-35.73Q131.13-41.31 134.23-43.42Q137.34-45.54 142.56-45.54L142.56-45.54Q145.08-42.57 144.90-37.08L144.90-37.08L144-36.18Q141.75-36.81 139.86-36.81L139.86-36.81Q137.34-36.81 135.58-35.50Q133.83-34.20 132.03-31.41L132.03-31.41L127.62-24.48L136.71-9.72Q140.40-3.78 145.26-3.78L145.26-3.78ZM171.63 0.54L171.36 0.09L171.63-3.78Q175.41-4.14 176.53-4.59Q177.66-5.04 177.66-6.39L177.66-6.39Q177.66-7.56 177.12-9L177.12-9L175.41-14.85Q173.52-14.94 168.30-14.94L168.30-14.94Q165.51-14.94 161.01-14.49L161.01-14.49L158.85-8.73Q158.40-6.93 158.40-6.48L158.40-6.48Q158.40-5.13 159.25-4.59Q160.11-4.05 162.18-4.05L162.18-4.05L165.51-4.05L165.87-3.60L165.33 0.45Q164.34 0.36 161.01 0.18Q157.68 0 154.71 0L154.71 0Q151.74 0 149.31 0.09Q146.88 0.18 146.07 0.18L146.07 0.18L146.61-4.14Q148.41-4.41 149.53-5.44Q150.66-6.48 151.65-9L151.65-9L165.24-44.55L174.78-45.72L175.59-45.45Q176.67-41.49 180.18-29.20Q183.69-16.92 186.48-9L186.48-9Q187.29-6.39 188.59-5.35Q189.90-4.32 192.69-4.05L192.69-4.05L192.96-3.60L192.42 0.18Q191.52 0.18 188.95 0.09Q186.39 0 183.69 0L183.69 0Q179.91 0 176.26 0.22Q172.62 0.45 171.63 0.54L171.63 0.54ZM162.63-19.89L168.21-19.89Q171.72-19.89 174.15-20.16L174.15-20.16L169.38-36.36L168.48-36.36L162.63-19.89ZM237.78-4.41L238.05-3.96L237.33 0.18L231.12 0.09Q229.32 0 226.53 0L226.53 0Q219.87 0 216.99 0.63L216.99 0.63L217.53-3.60Q220.86-4.32 221.94-5.44Q223.02-6.57 223.11-9.45L223.11-9.45L223.11-17.19L217.17-17.19L210.87-5.40Q209.07-1.98 207.27-0.45Q205.47 1.08 203.31 1.08L203.31 1.08L194.85 0.36L194.49-0.18L195.03-3.69Q198-4.05 199.84-5.35Q201.69-6.66 203.67-9.72L203.67-9.72L207.36-15.21Q208.53-16.92 209.29-17.73Q210.06-18.54 211.14-19.08L211.14-19.08Q205.92-20.61 203.08-23.89Q200.25-27.18 200.25-31.77L200.25-31.77Q200.25-37.89 205.38-41.58Q210.51-45.27 219.06-45.27L219.06-45.27Q220.59-45.27 223.65-45.09L223.65-45.09Q226.71-44.91 228.06-44.91L228.06-44.91Q231.57-44.91 237.60-45.45L237.60-45.45L237.24-41.13Q235.08-40.77 234.18-40.41Q233.28-40.05 232.92-39.38Q232.56-38.70 232.38-37.26L232.38-37.26Q232.11-34.47 231.70-24.39Q231.30-14.31 231.30-9.72L231.30-9.72Q231.30-7.29 231.52-6.17Q231.75-5.04 232.42-4.63Q233.10-4.23 234.45-4.23L234.45-4.23Q235.08-4.23 237.78-4.41L237.78-4.41ZM216.90-22.77L223.11-22.41L223.20-36.45Q223.11-38.43 221.89-39.24Q220.68-40.05 217.98-40.05L217.98-40.05Q213.75-40.05 211.54-38.07Q209.34-36.09 209.34-32.40L209.34-32.40Q209.34-28.98 211.32-26.41Q213.30-23.85 216.90-22.77L216.90-22.77ZM244.98-18.27L244.26-19.17L244.80-24.84L260.10-26.64Q262.98-26.91 264.47-27.13Q265.95-27.36 266.31-27.45L266.31-27.45L267.03-26.46L266.40-20.61L244.98-18.27ZM275.13 0.45L275.76-3.87Q279.27-4.14 280.75-4.77Q282.24-5.40 282.69-6.79Q283.14-8.19 283.14-11.52L283.14-11.52L283.14-40.14Q278.55-39.96 276.71-39.46Q274.86-38.97 274.00-37.21Q273.15-35.46 272.61-30.96L272.61-30.96L267.21-30.69Q267.39-31.95 267.75-36.41Q268.11-40.86 268.20-45L268.20-45L268.92-45.72L275.94-45L298.98-45L306.09-45.72L306.90-45Q306.99-40.77 307.35-36.49Q307.71-32.22 307.80-30.96L307.80-30.96L302.40-30.69Q301.77-35.37 300.96-37.17Q300.15-38.97 298.44-39.46Q296.73-39.96 292.41-40.14L292.41-40.14Q292.05-35.55 291.74-26.32Q291.42-17.10 291.42-9.09L291.42-9.09Q291.42-6.48 292.37-5.40Q293.31-4.32 295.56-4.32L295.56-4.32Q297.09-4.32 298.13-4.41Q299.16-4.50 299.43-4.50L299.43-4.50L299.79-4.14L299.16 0.27Q297.81 0.27 294.12 0.14Q290.43 0 286.92 0L286.92 0Q284.40 0 280.40 0.18Q276.39 0.36 275.13 0.45L275.13 0.45ZM332.64 0.81Q326.25 0.81 321.48-1.89Q316.71-4.59 314.15-9.54Q311.58-14.49 311.58-21.15L311.58-21.15Q311.58-28.35 314.69-33.93Q317.79-39.51 323.28-42.61Q328.77-45.72 335.88-45.72L335.88-45.72Q345.69-45.72 351.45-39.87Q357.21-34.02 357.21-23.94L357.21-23.94Q357.21-16.74 354.06-11.12Q350.91-5.49 345.33-2.34Q339.75 0.81 332.64 0.81L332.64 0.81ZM334.62-4.59Q340.38-4.59 343.80-8.82Q347.22-13.05 347.22-20.43L347.22-20.43Q347.22-29.52 343.62-34.56Q340.02-39.60 333.72-39.60L333.72-39.60Q328.05-39.60 324.77-35.41Q321.48-31.23 321.48-23.85L321.48-23.85Q321.48-14.76 324.99-9.67Q328.50-4.59 334.62-4.59L334.62-4.59Z" fill="#000000" fontsize="90" transform="matrix(1,0,0,1,89.325,269.82)"></path></svg>
