<?xml version="1.0" standalone="no"?>
<svg version="1.0" xmlns="http://www.w3.org/2000/svg"
 viewBox="0 0 30.000000 30.000000"
 preserveAspectRatio="xMidYMid meet">

<g transform="translate(0.000000,30.000000) scale(0.100000,-0.100000)"
fill="currentColor" stroke="none">
<path d="M45 245 c-42 -41 -30 -89 41 -165 26 -28 55 -50 64 -50 28 0 118 105
126 145 12 64 -45 112 -102 86 -17 -8 -31 -8 -44 -1 -31 16 -59 12 -85 -15z
m87 -12 c17 -15 19 -15 36 0 10 10 27 17 37 17 26 0 55 -29 55 -55 0 -24 -42
-85 -84 -124 l-26 -24 -26 24 c-41 37 -84 100 -84 122 0 48 56 73 92 40z"/>
</g>
</svg>
